HIERARCHY
ROOT hip
{
	OFFSET 0.000000 0.000000 0.000000 
	CHANNELS 6 Xposition Yposition Zposition Xrotation Zrotation Yrotation
	JOINT abdomen
	{
		OFFSET 0.000000 3.402643 0.000000 
		CHANNELS 3 Xrotation Zrotation Yrotation
		JOINT chest
		{
			OFFSET 0.000000 8.438565 -0.680529 
			CHANNELS 3 Xrotation Zrotation Yrotation
			JOINT neck
			{
				OFFSET 0.000000 10.207942 -0.272212 
				CHANNELS 3 Xrotation Zrotation Yrotation
				JOINT head
				{
					OFFSET 0.000000 3.130431 0.000000 
					CHANNELS 3 Xrotation Zrotation Yrotation
					End Site
					{
						OFFSET 0.000000 3.130435 0.000000 
					}
				}
			}
			JOINT lCollar
			{
				OFFSET 3.470700 6.669187 -0.816635 
				CHANNELS 3 Yrotation Zrotation Xrotation
				JOINT lShldr
				{
					OFFSET 3.198488 0.000000 0.000000 
					CHANNELS 3 Zrotation Yrotation Xrotation
					JOINT lForeArm
					{
						OFFSET 10.139888 0.000000 0.000000 
						CHANNELS 3 Yrotation Zrotation Xrotation
						JOINT lHand
						{
							OFFSET 8.370511 0.000000 0.000000 
							CHANNELS 3 Zrotation Yrotation Xrotation
							End Site
							{
								OFFSET 4.083176 0.000000 0.000000 
							}
						}
					}
				}
			}
			JOINT rCollar
			{
				OFFSET -3.470700 6.669187 -0.816635 
				CHANNELS 3 Yrotation Zrotation Xrotation
				JOINT rShldr
				{
					OFFSET -3.198488 0.000000 0.000000 
					CHANNELS 3 Zrotation Yrotation Xrotation
					JOINT rForeArm
					{
						OFFSET -10.139888 0.000000 0.000000 
						CHANNELS 3 Yrotation Zrotation Xrotation
						JOINT rHand
						{
							OFFSET -8.370511 0.000000 0.000000 
							CHANNELS 3 Zrotation Yrotation Xrotation
							End Site
							{
								OFFSET -4.083176 0.000000 0.000000 
							}
						}
					}
				}
			}
		}
	}
	JOINT lThigh
	{
		OFFSET 5.308129 -1.633274 1.361059 
		CHANNELS 3 Xrotation Zrotation Yrotation
		JOINT lShin
		{
			OFFSET -2.041588 -20.007561 0.000000 
			CHANNELS 3 Xrotation Zrotation Yrotation
			JOINT lFoot
			{
				OFFSET 0.000000 -19.190928 -1.224953 
				CHANNELS 3 Xrotation Yrotation Zrotation
				End Site
				{
					OFFSET 0.000000 -2.449906 4.627600 
				}
			}
		}
	}
	JOINT rThigh
	{
		OFFSET -5.308129 -1.633274 1.361059 
		CHANNELS 3 Xrotation Zrotation Yrotation
		JOINT rShin
		{
			OFFSET 2.041588 -20.007561 0.000000 
			CHANNELS 3 Xrotation Zrotation Yrotation
			JOINT rFoot
			{
				OFFSET 0.000000 -19.190928 -1.224953 
				CHANNELS 3 Xrotation Yrotation Zrotation
				End Site
				{
					OFFSET 0.000000 -2.449906 4.627600 
				}
			}
		}
	}
}
MOTION
Frames: 11
Frame Time: 0.033333
0.000000 37.133133 -0.218329 17.041016 0.000000 14.755858 12.118395 -0.136717 0.312499 -13.160337 -2.361688 -14.690742 -4.847106 -1.640622 0.117139 -3.474434 0.605421 -0.722616 2.584918 -4.067435 -2.415199 -70.051994 -26.548199 1.527269 -48.077835 -25.723907 1.812680 -8.282388 -29.749363 -0.605393 -5.065992 2.335994 -2.317036 62.460426 -36.172710 -1.148651 13.640051 4.724490 11.107447 16.593233 11.657117 -0.067092 1.151326 5.492984 -1.288811 33.582153 -4.835040 -2.873672 -15.140901 -12.702715 4.436779 -59.539539 -11.767055 3.057743 28.838329 2.065011 1.617049 -26.960419 -10.911873 -3.322067 
0.000000 36.658474 -0.218329 16.220703 0.000000 13.789062 10.614348 -0.136716 0.371093 -11.393524 -2.124693 -13.769669 -3.460368 -1.630856 0.117140 -2.810045 0.595658 -0.703087 2.645118 -4.030870 -2.415084 -67.145767 -26.513739 1.736205 -46.837074 -25.396482 2.452294 -8.512112 -29.152750 -0.530365 -4.998473 2.304810 -2.326998 61.145397 -36.597527 -3.038789 14.460308 5.677995 11.248292 16.307133 12.153569 -0.033818 0.049298 5.616187 -1.144853 37.967751 -5.070313 -3.497772 -3.624698 -10.108816 7.286202 -58.801468 -10.760637 2.504642 33.662125 2.426130 2.201890 -24.157799 -10.496838 -2.711277 
0.000000 36.183884 -0.218329 15.405825 -0.019045 12.812499 9.110205 -0.146480 0.439452 -9.627580 -1.932817 -12.849518 -2.063605 -1.630857 0.107378 -2.145563 0.585897 -0.673793 2.696240 -3.993436 -2.404574 -64.239868 -26.490690 1.951196 -45.599239 -25.064314 3.090516 -8.738797 -28.555899 -0.458595 -4.931748 2.263006 -2.326849 59.842709 -37.059013 -4.928233 15.271028 6.630958 11.369852 16.025848 12.638179 -0.012832 -1.064215 5.751183 -1.023006 42.368031 -5.236429 -4.137397 7.656401 -7.061950 9.549457 -58.067146 -9.764678 1.964204 38.470699 2.743664 2.801125 -21.335953 -10.050356 -2.095575 
0.000000 36.022228 -0.218329 14.025325 0.009582 11.142578 6.570858 -0.175776 0.458982 -6.805257 -1.532626 -11.224996 1.071455 -1.621092 0.097617 -0.650319 0.556611 -0.595675 2.807279 -3.910120 -2.404363 -62.282665 -22.969526 0.063963 -43.223129 -24.312092 4.274523 -9.318066 -27.430988 -0.205046 -4.824400 2.258647 -2.327224 60.770039 -34.774540 -9.971199 17.023989 8.453959 11.532264 15.455224 13.725314 0.096149 -4.402556 5.505776 -0.768217 50.489555 -5.247272 -5.271766 14.217437 -3.516603 9.884583 -57.117199 -8.515424 0.965844 48.931293 3.332141 4.028660 -18.160757 -9.098967 -1.839427 
0.000000 35.860649 -0.218329 12.646484 0.000000 9.472656 4.031490 -0.205071 0.478513 -3.964903 -1.213271 -9.592015 4.206527 -1.601561 0.087856 0.844846 0.527322 -0.517556 2.928320 -3.836471 -2.394384 -60.491093 -19.389931 -1.646774 -40.862488 -23.525747 5.425197 -9.882215 -26.303791 0.018754 -4.707294 2.253891 -2.327624 61.447491 -32.430099 -14.844768 18.777676 10.286019 11.647355 14.890287 14.830634 0.185375 -7.727803 5.269025 -0.520178 58.605865 -5.112043 -6.369654 20.726797 0.028953 9.811343 -56.191952 -7.254939 0.020437 59.397305 3.700898 5.319826 -15.033347 -8.110478 -1.644192 
0.000000 36.009888 -0.218329 11.798301 0.009661 8.398440 2.557362 -0.195309 0.361326 -2.458799 -0.994820 -8.497517 7.908292 -1.562499 0.068334 2.613762 0.478503 -0.410142 3.031503 -3.751179 -2.364334 -62.119164 -13.406722 -6.126966 -38.860592 -22.657711 6.292955 -10.473258 -25.323301 0.245969 -4.655336 2.356865 -2.299010 65.363220 -27.795980 -20.085211 20.438641 11.790936 11.701896 14.376312 15.900059 0.242068 -10.764455 5.299235 -0.500300 69.770966 -4.791610 -7.763386 15.321566 1.308349 9.403571 -52.637329 -6.678597 -0.625713 62.203236 4.073339 5.763890 -17.881691 -7.277863 -2.603033 
0.000000 36.159176 -0.218329 10.949756 0.019372 7.324222 1.092918 -0.195311 0.244139 -0.941881 -0.794125 -7.393352 11.610046 -1.503906 0.048811 4.392313 0.419916 -0.302726 3.134826 -3.675007 -2.324569 -64.185417 -7.575205 -10.689869 -36.888256 -21.765213 7.128570 -11.056849 -24.339006 0.461884 -4.593724 2.459506 -2.270035 68.650703 -22.902166 -24.763903 22.120783 13.286139 11.704693 13.857784 16.976147 0.270549 -13.806962 5.331216 -0.490902 80.926895 -4.197551 -9.046366 9.925945 2.630894 9.120489 -49.093349 -6.073521 -1.205349 65.002708 4.443112 6.189770 -20.731562 -6.377647 -3.473251 
0.000000 36.498775 -0.218329 10.567433 0.009711 6.035158 0.546609 -0.156250 0.097656 -0.471077 -0.621502 -6.064837 14.696548 -1.406250 0.029288 5.867970 0.361326 -0.185543 3.280849 -3.549784 -2.256151 -67.264709 -2.014067 -15.446700 -35.099453 -20.791718 7.747244 -11.538962 -23.409184 0.548568 -4.501603 2.627074 -2.212411 72.904030 -17.462036 -28.271154 23.775789 14.525269 11.531615 13.412504 17.959270 0.258110 -16.768808 4.938696 -0.420600 87.904182 -3.994168 -9.961073 4.164118 3.633718 8.670190 -44.934650 -5.428861 -1.415963 63.405426 4.765455 6.164939 -25.745861 -5.053970 -4.301522 
0.000000 36.838394 -0.218329 10.174973 -0.009732 4.736329 -0.009656 -0.107422 -0.058612 -0.000436 -0.467156 -4.726723 17.783203 -1.289063 -0.000220 7.353226 0.283203 -0.058593 3.426573 -3.424218 -2.187127 -70.794502 3.261730 -20.490088 -33.334320 -19.790995 8.326739 -12.018552 -22.467855 0.628787 -4.409720 2.785823 -2.164070 76.697784 -11.809628 -31.265392 25.432106 15.763553 11.325951 12.966389 18.948246 0.248543 -19.739483 4.548783 -0.309062 94.865173 -3.653812 -10.818211 -1.603939 4.623847 8.309935 -40.782269 -4.774415 -1.570155 61.805923 5.077943 6.115448 -30.717945 -3.648566 -4.993946 
0.000000 37.241909 -0.218329 10.007378 -0.058545 2.333983 -0.195263 -0.029297 -0.097661 0.155380 -0.214660 -2.373067 19.072639 -1.103516 -0.019716 7.978725 0.205078 0.058628 3.653520 -3.222499 -2.107662 -72.656258 5.937604 -23.195475 -31.327686 -18.691626 8.937033 -12.333918 -21.363945 0.521974 -4.181750 2.957782 -2.096632 78.620377 -7.246627 -31.758886 27.284906 17.037783 10.913322 12.520046 19.871954 0.205453 -25.497437 4.101387 0.217110 92.825737 -3.917005 -10.744154 4.906357 6.475055 5.923054 -36.193340 -4.159216 -1.581471 58.748371 5.429415 5.917807 -32.353966 -1.123403 -4.997955 
0.000000 37.645435 -0.218329 9.824358 -0.117187 -0.068379 -0.380984 0.048828 -0.146484 0.312495 0.029297 -0.009766 20.352180 -0.908203 -0.039212 8.594080 0.107421 0.175799 3.890024 -3.010753 -2.028777 -74.650681 8.529170 -26.016378 -29.348490 -17.560059 9.488401 -12.662579 -20.259506 0.419879 -3.953660 3.130957 -2.039386 80.495438 -2.670156 -32.093639 29.159615 18.301790 10.457314 12.072659 20.811022 0.139873 -31.245031 3.690271 0.791822 90.765388 -4.170356 -10.649300 11.506731 8.043975 3.326607 -31.605362 -3.554054 -1.560736 55.692104 5.771371 5.749166 -33.979916 1.398807 -4.941052 
